<svg id="notification-icon" xmlns="http://www.w3.org/2000/svg" width="26" height="26" viewBox="0 0 26 26">
  <rect id="Rectangle_44" data-name="Rectangle 44" width="26" height="26" fill="none"/>
  <path id="bell" d="M13.666,11.782l-.666-.6V6A4,4,0,1,0,5,6v5.186l-.666.6A6.987,6.987,0,0,0,2.29,15H15.71A6.987,6.987,0,0,0,13.666,11.782ZM12,17a3,3,0,0,1-6,0H0a8.978,8.978,0,0,1,3-6.708V6A6,6,0,1,1,15,6v4.292A8.978,8.978,0,0,1,18,17ZM9,18a1,1,0,0,0,1-1H8A1,1,0,0,0,9,18Z" transform="translate(4 3)" fill="#FF6536"/>
</svg>
