<svg id="trash-icon" xmlns="http://www.w3.org/2000/svg" width="24" height="24" viewBox="0 0 24 24">
  <rect id="Rectangle_65" data-name="Rectangle 65" width="24" height="24" fill="none"/>
  <path id="trash-alt-f" fill="#e10000" d="M12.305,5l-.56,10.084a1.665,1.665,0,0,1-1.663,1.574H3.241A1.665,1.665,0,0,1,1.578,15.08L1.018,5ZM.833,0H12.49a.833.833,0,0,1,.833.833V2.5a.833.833,0,0,1-.833.833H.833A.833.833,0,0,1,0,2.5V.833A.833.833,0,0,1,.833,0ZM5,6.661a.833.833,0,0,0-.833.833v5.829a.833.833,0,1,0,1.665,0V7.494A.833.833,0,0,0,5,6.661Zm3.331,0a.833.833,0,0,0-.833.833v5.829a.833.833,0,1,0,1.665,0V7.494A.833.833,0,0,0,8.327,6.661Z" transform="translate(5 4)"/>
</svg>
