<svg id="calendar_view_month_black_24dp" xmlns="http://www.w3.org/2000/svg" width="24" height="24" viewBox="0 0 24 24">
  <g id="Group_17" data-name="Group 17">
    <path id="Path_10" data-name="Path 10" d="M0,0H24V24H0Z" fill="none"/>
  </g>
  <g id="Group_18" data-name="Group 18">
    <path id="Path_11" data-name="Path 11" d="M20,4H4A2.006,2.006,0,0,0,2,6V18a2.006,2.006,0,0,0,2,2H20a2.006,2.006,0,0,0,2-2V6A2.006,2.006,0,0,0,20,4ZM8,11H4V6H8Zm6,0H10V6h4Zm6,0H16V6h4ZM8,18H4V13H8Zm6,0H10V13h4Zm6,0H16V13h4Z"/>
  </g>
</svg>
